<svg width="16" height="16" viewBox="0 0 16 16" fill="none" xmlns="http://www.w3.org/2000/svg">
<path d="M3.2 16V12.6C2.72 12.3867 2.28333 12.1 1.89 11.74C1.49667 11.38 1.16 10.9633 0.88 10.49C0.6 10.0167 0.383333 9.5 0.23 8.94C0.0766667 8.38 0 7.8 0 7.2C0 5.09333 0.746667 3.36667 2.24 2.02C3.73333 0.673333 5.65333 0 8 0C10.3467 0 12.2667 0.673333 13.76 2.02C15.2533 3.36667 16 5.09333 16 7.2C16 7.8 15.9233 8.38 15.77 8.94C15.6167 9.5 15.4 10.0167 15.12 10.49C14.84 10.9633 14.5033 11.38 14.11 11.74C13.7167 12.1 13.28 12.3867 12.8 12.6V16H3.2ZM4.4 14.8H5.8V12.8H7V14.8H9V12.8H10.2V14.8H11.6V11.86C12.0933 11.7133 12.5367 11.4933 12.93 11.2C13.3233 10.9067 13.66 10.5567 13.94 10.15C14.22 9.74333 14.4333 9.28987 14.58 8.78962C14.7267 8.28935 14.8 7.76051 14.8 7.20308C14.8 5.41645 14.1733 3.96928 12.92 2.86156C11.6667 1.75385 10.027 1.2 8.00086 1.2C5.97477 1.2 4.33477 1.75392 3.08086 2.86176C1.82695 3.9696 1.2 5.41693 1.2 7.20376C1.2 7.76125 1.27333 8.29 1.42 8.79C1.56667 9.29 1.78 9.74333 2.06 10.15C2.34 10.5567 2.67667 10.9067 3.07 11.2C3.46333 11.4933 3.90667 11.7133 4.4 11.86V14.8ZM6.8 10.4H9.2L8 8L6.8 10.4ZM5.20178 8.4C5.58726 8.4 5.91667 8.26274 6.19 7.98822C6.46333 7.71371 6.6 7.38371 6.6 6.99822C6.6 6.61274 6.46274 6.28333 6.18822 6.01C5.91371 5.73667 5.58371 5.6 5.19822 5.6C4.81274 5.6 4.48333 5.73726 4.21 6.01178C3.93667 6.28629 3.8 6.61629 3.8 7.00178C3.8 7.38726 3.93726 7.71667 4.21178 7.99C4.48629 8.26333 4.81629 8.4 5.20178 8.4ZM10.8018 8.4C11.1873 8.4 11.5167 8.26274 11.79 7.98822C12.0633 7.71371 12.2 7.38371 12.2 6.99822C12.2 6.61274 12.0627 6.28333 11.7882 6.01C11.5137 5.73667 11.1837 5.6 10.7982 5.6C10.4127 5.6 10.0833 5.73726 9.81 6.01178C9.53667 6.28629 9.4 6.61629 9.4 7.00178C9.4 7.38726 9.53726 7.71667 9.81178 7.99C10.0863 8.26333 10.4163 8.4 10.8018 8.4Z" fill="#46799D"/>
</svg>
