<svg width="12" height="12" viewBox="0 0 12 12" fill="none" xmlns="http://www.w3.org/2000/svg">
<path d="M10.2942 11.8658L8.45488 10.0174L7.14957 11.3292L6.51174 10.6882C6.34363 10.5193 6.25958 10.3106 6.25958 10.0621C6.25958 9.81366 6.34363 9.60497 6.51174 9.43602L9.46354 6.46957C9.63164 6.30062 9.83931 6.21615 10.0865 6.21615C10.3337 6.21615 10.5414 6.30062 10.7095 6.46957L11.3473 7.11056L10.042 8.42236L11.8665 10.2708C11.9555 10.3602 12 10.4646 12 10.5839C12 10.7031 11.9555 10.8075 11.8665 10.8969L10.9172 11.8658C10.8282 11.9553 10.7244 12 10.6057 12C10.487 12 10.3832 11.9553 10.2942 11.8658ZM11.9407 2.38509L5.22126 9.13789L5.50309 9.43602C5.6712 9.60497 5.75525 9.81366 5.75525 10.0621C5.75525 10.3106 5.6712 10.5193 5.50309 10.6882L4.86527 11.3292L3.55995 10.0174L1.72064 11.8658C1.63164 11.9553 1.52781 12 1.40915 12C1.29048 12 1.18665 11.9553 1.09765 11.8658L0.133498 10.8969C0.0444994 10.8075 0 10.7031 0 10.5839C0 10.4646 0.0444994 10.3602 0.133498 10.2708L1.97281 8.42236L0.667491 7.11056L1.30532 6.46957C1.47342 6.30062 1.68109 6.21615 1.92831 6.21615C2.17553 6.21615 2.38319 6.30062 2.5513 6.46957L2.84796 6.75279L9.56737 0H11.9407V2.38509ZM3.01112 5.33665L0.0741656 2.38509V0H2.44747L5.38443 2.95155L4.76143 3.57764L2.07664 0.89441H0.964153V2.01242L3.63412 4.71056L3.01112 5.33665ZM4.5686 8.49689L11.0507 2.01242V0.89441H9.9382L3.45612 7.37888L4.5686 8.49689Z" fill="#46799D"/>
</svg>
